<?xml version="1.0" standalone="no"?>
<!DOCTYPE svg PUBLIC "-//W3C//DTD SVG 20010904//EN"
 "http://www.w3.org/TR/2001/REC-SVG-20010904/DTD/svg10.dtd">
<svg version="1.0" xmlns="http://www.w3.org/2000/svg"
 width="562.000000pt" height="562.000000pt" viewBox="0 0 562.000000 562.000000"
 preserveAspectRatio="xMidYMid meet">
<metadata>
Created by potrace 1.14, written by Peter Selinger 2001-2017
</metadata>
<g transform="translate(0.000000,562.000000) scale(0.100000,-0.100000)"
fill="#000000" stroke="none">
<path d="M779 5616 c-2 -2 -20 -6 -39 -9 -61 -10 -145 -37 -220 -71 -129 -60
-273 -190 -346 -313 -34 -58 -75 -143 -68 -143 3 0 -1 -10 -7 -22 -7 -13 -21
-57 -30 -98 -17 -71 -18 -187 -16 -2165 2 -1149 6 -2102 9 -2117 24 -109 84
-247 146 -333 42 -58 143 -159 184 -183 15 -9 28 -20 28 -24 0 -4 4 -8 9 -8 5
0 35 -15 68 -33 52 -29 86 -42 206 -78 21 -6 41 -8 44 -5 4 3 12 1 18 -4 14
-12 4085 -9 4125 3 14 4 34 9 45 11 36 8 169 58 195 74 132 81 205 146 282
250 58 78 118 207 134 287 2 11 7 31 11 45 10 32 10 4202 1 4255 -4 22 -17 69
-29 105 -95 291 -329 499 -634 564 -61 13 -339 15 -2091 16 -1111 0 -2023 -2
-2025 -4z"/>
</g>
</svg>
